<svg width="710" height="473" fill="none" xmlns="http://www.w3.org/2000/svg"><g filter="url(#a)"><rect y=".273" width="671" height="433.453" rx="20" fill="#fff"/></g><path fill="#fff" fill-opacity=".1" d="M0 10.685h671v406.953H0z"/><path d="M55.038 25.535v6.468h-1.837v-.945c-.2.34-.463.6-.788.779a2.243 2.243 0 0 1-1.1.268c-.791 0-1.383-.226-1.774-.677-.392-.45-.588-1.132-.588-2.042v-3.851h1.888v3.889c0 .783.329 1.175.987 1.175.392 0 .708-.137.95-.409.241-.272.362-.63.362-1.072v-3.583h1.9Zm7.199-2.95v9.418h-1.862v-.958a2.012 2.012 0 0 1-.813.78c-.35.186-.745.28-1.187.28a2.54 2.54 0 0 1-1.45-.426c-.425-.285-.754-.685-.991-1.2-.238-.515-.354-1.102-.354-1.766 0-.664.116-1.247.354-1.753.237-.506.566-.898.987-1.174.42-.277.904-.413 1.454-.413.425 0 .812.093 1.162.272.35.183.621.434.813.758v-3.818h1.887ZM60 30.147c.25-.327.375-.795.375-1.408 0-.604-.125-1.068-.38-1.396-.253-.328-.608-.49-1.066-.49-.467 0-.829.162-1.087.486-.258.323-.388.783-.388 1.379 0 .612.13 1.085.388 1.42.258.337.62.503 1.087.503.467-.004.82-.166 1.07-.494Zm9.44-4.612v6.468h-1.862v-.958a2.012 2.012 0 0 1-.813.78c-.35.186-.745.28-1.187.28-.55 0-1.033-.136-1.454-.409-.42-.272-.75-.66-.987-1.166-.238-.506-.354-1.089-.354-1.753 0-.664.116-1.255.354-1.774.237-.52.566-.92.991-1.205a2.54 2.54 0 0 1 1.45-.425c.442 0 .837.098 1.187.293.35.196.621.46.813.792v-.923h1.862Zm-2.237 4.617c.25-.324.375-.792.375-1.405 0-.612-.125-1.08-.375-1.408-.25-.328-.608-.49-1.075-.49-.467 0-.829.17-1.087.511-.259.34-.388.813-.388 1.417 0 .604.125 1.064.38 1.383.254.32.616.477 1.09.477.472 0 .83-.162 1.08-.485Zm-18.63 1.944H46.23l-2.516-2.932v2.932h-1.908v-9.51h1.908v5.774l2.403-2.804h2.292l-2.72 3.14 2.882 3.4ZM36.57 32.096l-3.663-4.306 2 4.306H33.52l-2.042-4.391.85 4.391h-.854l-.85-4.4v4.4h-.333v-9.51h.333v4.744l.863-4.745h.85l-.867 4.767 2.083-4.767h1.37l-2.07 4.75 3.762-4.75h2.154l-3.895 4.911 3.912 4.6h-2.217ZM71.02 31.994c.57 0 1.033-.472 1.033-1.055s-.463-1.055-1.034-1.055c-.57 0-1.033.472-1.033 1.055s.463 1.055 1.033 1.055Z" fill="#40196D"/><rect x="593.27" y="24.487" width="47.529" height="5.236" rx="2.618" fill="#DBDCE0"/><ellipse cx="208.522" cy="26.628" rx="5.825" ry="5.95" fill="#40196D"/><rect x="219.473" y="23.535" width="28.424" height="5.712" rx="2.856" fill="#DFE3FF"/><ellipse cx="263.506" cy="26.628" rx="5.825" ry="5.95" fill="#CACACA"/><rect opacity=".6" x="274.457" y="23.535" width="28.424" height="5.712" rx="2.856" fill="#DBDCE0"/><ellipse cx="318.493" cy="26.628" rx="5.825" ry="5.95" fill="#CACACA"/><rect opacity=".6" x="329.443" y="23.535" width="28.424" height="5.712" rx="2.856" fill="#DBDCE0"/><ellipse cx="373.479" cy="26.628" rx="5.825" ry="5.95" fill="#CACACA"/><rect opacity=".6" x="384.43" y="23.535" width="28.424" height="5.712" rx="2.856" fill="#DBDCE0"/><ellipse cx="428.461" cy="26.628" rx="5.825" ry="5.95" fill="#CACACA"/><rect opacity=".6" x="439.412" y="23.535" width="28.424" height="5.712" rx="2.856" fill="#DBDCE0"/><g filter="url(#b)"><path d="M168.217 125.871c0-2.103 1.669-3.808 3.728-3.808h48.461c2.058 0 3.727 1.705 3.727 3.808v5.711c0 2.103-1.669 3.808-3.727 3.808h-48.461c-2.059 0-3.728-1.705-3.728-3.808v-5.711Z" fill="#fff"/></g><g filter="url(#c)"><path fill-rule="evenodd" clip-rule="evenodd" d="M171.945 121.825h48.461c2.188 0 3.961 1.811 3.961 4.045v5.712c0 2.235-1.773 4.046-3.961 4.046h-48.461c-2.187 0-3.961-1.811-3.961-4.046v-5.712c0-2.234 1.774-4.045 3.961-4.045Zm0 .238c-2.059 0-3.728 1.705-3.728 3.807v5.712c0 2.103 1.669 3.808 3.728 3.808h48.461c2.059 0 3.728-1.705 3.728-3.808v-5.712c0-2.102-1.669-3.807-3.728-3.807h-48.461Z" fill="#000" fill-opacity=".05"/></g><rect x="178.428" y="125.873" width="4.963" height="4.103" rx="2" fill="#40196D"/><mask id="d" maskUnits="userSpaceOnUse" x="178" y="125" width="6" height="5" style="mask-type:alpha"><rect x="178.428" y="125.873" width="4.963" height="4.103" rx="2" fill="#fff"/></mask><g mask="url(#d)"><path opacity=".527" fill-rule="evenodd" clip-rule="evenodd" d="M176.078 129.631a2 2 0 0 1 2-2h.963a2 2 0 0 1 2 2v.104a2 2 0 0 1-2 2h-.963a2 2 0 0 1-2-2v-.104Z" fill="#40196D"/></g><rect opacity=".527" x="176.139" y="127.514" width="4.963" height="4.103" rx="1" fill="#40196D"/><rect x="188.051" y="125.887" width="28.424" height="5.712" rx="2.856" fill="#DFE3FF"/><g opacity=".3" filter="url(#e)"><path d="M228.326 125.871c0-2.103 1.669-3.808 3.728-3.808h48.461c2.059 0 3.728 1.705 3.728 3.808v5.711c0 2.103-1.669 3.808-3.728 3.808h-48.461c-2.059 0-3.728-1.705-3.728-3.808v-5.711Z" fill="#fff"/></g><g opacity=".3" filter="url(#f)"><path fill-rule="evenodd" clip-rule="evenodd" d="M232.055 121.825h48.461c2.187 0 3.96 1.811 3.96 4.045v5.712c0 2.235-1.773 4.046-3.96 4.046h-48.461c-2.188 0-3.961-1.811-3.961-4.046v-5.712c0-2.234 1.773-4.045 3.961-4.045Zm0 .238c-2.059 0-3.728 1.705-3.728 3.807v5.712c0 2.103 1.669 3.808 3.728 3.808h48.461c2.058 0 3.727-1.705 3.727-3.808v-5.712c0-2.102-1.669-3.807-3.727-3.807h-48.461Z" fill="#000" fill-opacity=".05"/></g><path opacity=".4" fill-rule="evenodd" clip-rule="evenodd" d="M237.357 127.196a.649.649 0 0 0 .642-.655.65.65 0 0 0-.642-.656.649.649 0 0 0-.642.656c0 .362.287.655.642.655Zm0 2.185a.649.649 0 0 0 .642-.655.65.65 0 0 0-.642-.656.649.649 0 0 0-.642.656c0 .362.287.655.642.655Zm.642 1.531a.649.649 0 0 1-.642.655.648.648 0 0 1-.642-.655c0-.363.287-.656.642-.656.354 0 .642.293.642.656Zm1.769-3.716a.648.648 0 0 0 .642-.655.649.649 0 0 0-.642-.656.65.65 0 0 0-.642.656c0 .362.288.655.642.655Zm.642 1.53a.648.648 0 0 1-.642.655.649.649 0 0 1-.642-.655.65.65 0 0 1 .642-.656c.355 0 .642.294.642.656Zm-.642 2.841a.648.648 0 0 0 .642-.655.648.648 0 0 0-.642-.656.649.649 0 0 0-.642.656c0 .362.288.655.642.655Zm3.055-5.026a.648.648 0 0 1-.642.655.649.649 0 0 1-.642-.655.65.65 0 0 1 .642-.656c.355 0 .642.294.642.656Zm-.642 2.84a.648.648 0 0 0 .642-.655.649.649 0 0 0-.642-.656.65.65 0 0 0-.642.656c0 .362.288.655.642.655Zm.642 1.531a.648.648 0 0 1-.642.655.649.649 0 0 1-.642-.655c0-.363.288-.656.642-.656.355 0 .642.293.642.656Z" fill="#000"/><rect opacity=".4" x="247.48" y="125.871" width="28.424" height="5.712" rx="2.856" fill="#DFE3FF"/><g opacity=".3" filter="url(#g)"><path d="M287.039 125.871c0-2.103 1.669-3.808 3.728-3.808h48.461c2.059 0 3.728 1.705 3.728 3.808v5.711c0 2.103-1.669 3.808-3.728 3.808h-48.461c-2.059 0-3.728-1.705-3.728-3.808v-5.711Z" fill="#fff"/></g><g opacity=".3" filter="url(#h)"><path fill-rule="evenodd" clip-rule="evenodd" d="M290.767 121.825h48.462c2.187 0 3.96 1.811 3.96 4.045v5.712c0 2.235-1.773 4.046-3.96 4.046h-48.462c-2.187 0-3.96-1.811-3.96-4.046v-5.712c0-2.234 1.773-4.045 3.96-4.045Zm0 .238c-2.058 0-3.727 1.705-3.727 3.807v5.712c0 2.103 1.669 3.808 3.727 3.808h48.462c2.058 0 3.727-1.705 3.727-3.808v-5.712c0-2.102-1.669-3.807-3.727-3.807h-48.462Z" fill="#000" fill-opacity=".05"/></g><g opacity=".4" fill="#000"><rect x="295.893" y="125.871" width="1.398" height="1.428" rx=".699"/><rect x="295.893" y="128.25" width="1.398" height="1.428" rx=".699"/><rect x="295.893" y="130.631" width="1.398" height="1.428" rx=".699"/><rect x="297.756" y="130.631" width="1.398" height="1.428" rx=".699"/><rect x="299.773" y="130.631" width="1.398" height="1.428" rx=".699"/></g><rect opacity=".4" x="306.193" y="125.871" width="28.424" height="5.712" rx="2.856" fill="#DFE3FF"/><path opacity=".6" fill="#F9F9F9" d="M168.211 149.669h334.102v10.947H168.211z"/><rect x="215.74" y="166.804" width="83.875" height="6.664" rx="3.332" fill="#DBDCE0"/><rect opacity=".5" x="215.74" y="177.275" width="43.335" height="4.76" rx="2.38" fill="#DBDCE0"/><rect x="417.506" y="172.04" width="51.723" height="6.664" rx="3.332" fill="#DCFFEC"/><path d="m480.412 178.029.705.675 3.488-3.332-3.488-3.332-.705.675 2.78 2.657-2.78 2.657Z" fill="#CACACA"/><path opacity=".3" stroke="#DBDCE0" d="M168.211 190.581h334.102"/><rect x="215.74" y="197.744" width="67.566" height="6.664" rx="3.332" fill="#DBDCE0"/><rect opacity=".5" x="215.74" y="208.691" width="43.335" height="4.76" rx="2.38" fill="#DBDCE0"/><path opacity=".3" stroke="#DBDCE0" d="M168.211 221.042h334.102"/><g opacity=".3" fill="#DBDCE0"><rect x="215.74" y="228.206" width="67.566" height="6.664" rx="3.332"/><rect opacity=".5" x="215.74" y="239.153" width="43.335" height="4.76" rx="2.38"/></g><path d="m480.412 239.43.705.674 3.488-3.331-3.488-3.332-.705.675 2.78 2.657-2.78 2.657Z" fill="#CACACA"/><path opacity=".3" stroke="#DBDCE0" d="M168.211 251.505h334.102"/><rect x="215.74" y="258.67" width="67.566" height="6.664" rx="3.332" fill="#DBDCE0"/><rect opacity=".5" x="215.74" y="269.617" width="43.335" height="4.76" rx="2.38" fill="#DBDCE0"/><rect x="437.076" y="264.379" width="32.152" height="5.236" rx="2.618" fill="#DBDCE0"/><path d="m480.412 269.894.705.674 3.488-3.331-3.488-3.332-.705.674 2.78 2.658-2.78 2.657Z" fill="#CACACA"/><path fill-rule="evenodd" clip-rule="evenodd" d="M196.006 276.28c5.019 0 9.087-4.156 9.087-9.282s-4.068-9.281-9.087-9.281c-5.018 0-9.086 4.155-9.086 9.281s4.068 9.282 9.086 9.282Z" fill="#DBF8FF"/><path opacity=".3" stroke="#DBDCE0" d="M168.211 281.967h334.102"/><path opacity=".6" fill="#F9F9F9" d="M168.211 282.468h334.102v10.947H168.211z"/><rect x="215.74" y="300.077" width="40.54" height="6.664" rx="3.332" fill="#DBDCE0"/><rect opacity=".5" x="215.74" y="311.024" width="43.335" height="4.76" rx="2.38" fill="#DBDCE0"/><rect x="417.418" y="305.312" width="51.723" height="6.664" rx="3.332" fill="#DCFFEC"/><path d="m480.412 310.826.705.674 3.488-3.331-3.488-3.332-.705.675 2.78 2.657-2.78 2.657Z" fill="#CACACA"/><path fill-rule="evenodd" clip-rule="evenodd" d="M195.936 317.687c5.018 0 9.087-4.156 9.087-9.282s-4.069-9.281-9.087-9.281-9.086 4.155-9.086 9.281 4.068 9.282 9.086 9.282Z" fill="#FFDBDB"/><path opacity=".3" stroke="#DBDCE0" d="M168.211 323.377h334.102"/><rect x="215.74" y="330.542" width="67.566" height="6.664" rx="3.332" fill="#DBDCE0"/><rect opacity=".5" x="215.74" y="341.489" width="43.335" height="4.76" rx="2.38" fill="#DBDCE0"/><rect x="436.992" y="336.252" width="32.152" height="5.236" rx="2.618" fill="#DBDCE0"/><path d="m480.412 341.288.705.675 3.488-3.332-3.488-3.332-.705.675 2.78 2.657-2.78 2.657Z" fill="#CACACA"/><path fill-rule="evenodd" clip-rule="evenodd" d="M196.006 348.151c5.019 0 9.087-4.155 9.087-9.281s-4.068-9.282-9.087-9.282c-5.018 0-9.086 4.156-9.086 9.282s4.068 9.281 9.086 9.281Z" fill="#FFC325" fill-opacity=".3"/><path opacity=".3" stroke="#DBDCE0" d="M168.211 353.839h334.102"/><rect x="215.74" y="361.004" width="67.566" height="6.664" rx="3.332" fill="#DBDCE0"/><rect opacity=".5" x="215.74" y="371.951" width="43.335" height="4.76" rx="2.38" fill="#DBDCE0"/><rect x="437.07" y="366.716" width="32.152" height="5.236" rx="2.618" fill="#DBDCE0"/><path d="m480.412 372.229.705.674 3.488-3.332-3.488-3.331-.705.674 2.78 2.657-2.78 2.658Z" fill="#CACACA"/><path opacity=".3" fill-rule="evenodd" clip-rule="evenodd" d="M196.006 378.615c5.019 0 9.087-4.155 9.087-9.281s-4.068-9.282-9.087-9.282c-5.018 0-9.086 4.156-9.086 9.282s4.068 9.281 9.086 9.281Z" fill="#DD4E05"/><path opacity=".3" stroke="#DBDCE0" d="M168.211 384.303h334.102"/><ellipse cx="195.94" cy="175.609" rx="9.086" ry="9.281" fill="#DFE3FF"/><ellipse cx="195.94" cy="206.073" rx="9.086" ry="9.281" fill="#FFC325"/><ellipse cx="195.94" cy="206.073" rx="9.086" ry="9.281" fill="#DCFFEC"/><circle cx="195.432" cy="236.775" r="8.991" fill="#FFF5DB"/><rect x="421.693" y="233.917" width="47.529" height="5.236" rx="2.618" fill="#DBDCE0"/><g filter="url(#i)"><rect x="426.83" y="67.325" width="75.487" height="19.039" rx="4" fill="#fff"/></g><rect x="446.402" y="73.99" width="47.529" height="5.236" rx="2.618" fill="#DFE3FF"/><mask id="j" fill="#fff"><path fill-rule="evenodd" clip-rule="evenodd" d="M437.084 81.13c2.316 0 4.193-1.917 4.193-4.283 0-2.366-1.877-4.284-4.193-4.284s-4.193 1.918-4.193 4.284c0 2.366 1.877 4.284 4.193 4.284Zm-1.896-4.21a.202.202 0 0 1-.2-.204v-.16c0-.565.385-.924.997-.924h1.397v-.428c0-.1.065-.166.167-.166a.2.2 0 0 1 .125.047l.735.615a.167.167 0 0 1 0 .265l-.735.61a.2.2 0 0 1-.125.048c-.102 0-.167-.064-.167-.166v-.423h-1.439c-.335 0-.553.219-.553.555v.127c0 .113-.09.204-.202.204Zm1.432.158c.102 0 .167.064.167.166v.419h1.439c.335 0 .554-.22.554-.555v-.128c0-.113.089-.204.202-.204.11 0 .199.091.199.204v.16c0 .565-.385.925-.997.925h-1.397v.431c0 .1-.065.166-.167.166a.2.2 0 0 1-.125-.046L435.76 78a.167.167 0 0 1 0-.266l.735-.61a.2.2 0 0 1 .125-.047Z"/></mask><path fill-rule="evenodd" clip-rule="evenodd" d="M437.084 81.13c2.316 0 4.193-1.917 4.193-4.283 0-2.366-1.877-4.284-4.193-4.284s-4.193 1.918-4.193 4.284c0 2.366 1.877 4.284 4.193 4.284Zm-1.896-4.21a.202.202 0 0 1-.2-.204v-.16c0-.565.385-.924.997-.924h1.397v-.428c0-.1.065-.166.167-.166a.2.2 0 0 1 .125.047l.735.615a.167.167 0 0 1 0 .265l-.735.61a.2.2 0 0 1-.125.048c-.102 0-.167-.064-.167-.166v-.423h-1.439c-.335 0-.553.219-.553.555v.127c0 .113-.09.204-.202.204Zm1.432.158c.102 0 .167.064.167.166v.419h1.439c.335 0 .554-.22.554-.555v-.128c0-.113.089-.204.202-.204.11 0 .199.091.199.204v.16c0 .565-.385.925-.997.925h-1.397v.431c0 .1-.065.166-.167.166a.2.2 0 0 1-.125-.046L435.76 78a.167.167 0 0 1 0-.266l.735-.61a.2.2 0 0 1 .125-.047Z" fill="#40196D"/><path d="M437.382 75.632v.5h.5v-.5h-.5Zm.292-.547-.322.383h.001l.321-.383Zm.735.615-.321.383.002.002.319-.385Zm0 .265-.314-.389-.006.005.32.384Zm-.735.61-.32-.384-.002.002.322.383Zm-.292-.541h.5v-.5h-.5v.5Zm-.595 1.629h-.5v.5h.5v-.5Zm0 .402v-.5h-.5v.5h.5Zm-.292.55.322-.382h-.001l-.321.383Zm-.735-.614.321-.384h-.001l-.32.384Zm0-.266.313.39.007-.005-.32-.385Zm.735-.61.32.384.002-.002-.322-.382Zm4.282-.278c0 2.1-1.663 3.784-3.693 3.784v1c2.602 0 4.693-2.152 4.693-4.784h-1Zm-3.693-3.784c2.03 0 3.693 1.684 3.693 3.784h1c0-2.632-2.091-4.784-4.693-4.784v1Zm-3.693 3.784c0-2.1 1.663-3.784 3.693-3.784v-1c-2.602 0-4.693 2.152-4.693 4.784h1Zm3.693 3.784c-2.03 0-3.693-1.684-3.693-3.784h-1c0 2.632 2.091 4.784 4.693 4.784v-1Zm-2.596-3.915c0 .38.303.704.7.704v-1c.175 0 .3.143.3.296h-1Zm0-.16v.16h1v-.16h-1Zm1.497-1.424c-.403 0-.784.119-1.069.384-.288.268-.428.64-.428 1.04h1c0-.164.052-.255.109-.308.061-.056.179-.117.388-.117v-1Zm1.397 0h-1.397v1h1.397v-1Zm-.5.072v.428h1v-.428h-1Zm.667-.666a.667.667 0 0 0-.476.193.667.667 0 0 0-.191.473h1c0 .06-.021.153-.101.233a.333.333 0 0 1-.232.101v-1Zm.447.164a.699.699 0 0 0-.447-.164v1a.301.301 0 0 1-.197-.07l.644-.766Zm.734.614-.735-.615-.642.767.735.615.642-.767Zm-.007 1.038a.666.666 0 0 0 .005-1.04l-.638.77a.333.333 0 0 1 .005-.508l.628.778Zm-.73.606.735-.61-.639-.77-.735.611.639.77Zm-.444.163a.699.699 0 0 0 .447-.165l-.644-.765a.3.3 0 0 1 .197-.07v1Zm-.667-.666c0 .158.053.336.193.476.14.139.318.19.474.19v-1c.054 0 .149.019.231.1a.337.337 0 0 1 .102.234h-1Zm0-.423v.423h1v-.423h-1Zm-.939.5h1.439v-1h-1.439v1Zm-.053.055a.16.16 0 0 1 .006-.051c.002-.005.002-.004-.001 0-.004.004-.006.004-.001.002a.137.137 0 0 1 .049-.007v-1c-.278 0-.552.094-.756.299a1.053 1.053 0 0 0-.297.757h1Zm0 .127v-.127h-1v.127h1Zm-.702.704a.703.703 0 0 0 .702-.704h-1c0-.156.127-.296.298-.296v1Zm2.099-.176a.662.662 0 0 0-.193-.476.666.666 0 0 0-.474-.19v1a.335.335 0 0 1-.231-.1.338.338 0 0 1-.102-.234h1Zm0 .419v-.42h-1v.42h1Zm.939-.5h-1.439v1h1.439v-1Zm.054-.055c0 .03-.005.045-.007.05-.002.005-.002.004.001 0 .004-.004.006-.004.002-.002-.006.002-.021.007-.05.007v1c.278 0 .552-.093.756-.299.205-.205.298-.478.298-.756h-1Zm0-.128v.128h1v-.128h-1Zm.702-.704a.702.702 0 0 0-.702.704h1a.298.298 0 0 1-.298.296v-1Zm.699.704a.702.702 0 0 0-.699-.704v1a.299.299 0 0 1-.301-.296h1Zm0 .16v-.16h-1v.16h1Zm-1.497 1.425c.403 0 .784-.12 1.069-.384.289-.269.428-.64.428-1.041h-1c0 .164-.052.255-.109.308-.061.056-.179.117-.388.117v1Zm-1.397 0h1.397v-1h-1.397v1Zm.5-.069v-.431h-1v.431h1Zm-.667.666a.667.667 0 0 0 .476-.192.667.667 0 0 0 .191-.474h-1c0-.059.021-.152.101-.232a.334.334 0 0 1 .232-.102v1Zm-.447-.164a.7.7 0 0 0 .447.164v-1a.3.3 0 0 1 .197.071l-.644.765Zm-.734-.614.736.615.641-.767-.735-.615-.642.767Zm.008-1.039a.666.666 0 0 0-.006 1.04l.639-.769a.332.332 0 0 1-.007.508l-.626-.779Zm.729-.605-.735.61.639.77.735-.61-.639-.77Zm.444-.162a.7.7 0 0 0-.447.164l.644.765a.3.3 0 0 1-.197.07v-1Z" fill="#40196D" mask="url(#j)"/><g filter="url(#k)"><rect x="426.83" y="91.601" width="75.487" height="19.039" rx="4" fill="#fff"/></g><rect x="446.646" y="98.266" width="47.529" height="5.236" rx="2.618" fill="#DFE3FF"/><mask id="l" fill="#fff"><path fill-rule="evenodd" clip-rule="evenodd" d="M441.522 101.121c0 2.366-1.932 4.284-4.316 4.284-2.383 0-4.315-1.918-4.315-4.284 0-2.366 1.932-4.284 4.315-4.284 2.384 0 4.316 1.918 4.316 4.284Zm-5.993-.076c0-.153.124-.278.277-.278h1.148v-1.031a.28.28 0 1 1 .559 0v1.031h1.095a.279.279 0 0 1 0 .556h-1.095v1.185a.28.28 0 0 1-.559 0v-1.185h-1.148a.278.278 0 0 1-.277-.278Z"/></mask><path fill-rule="evenodd" clip-rule="evenodd" d="M441.522 101.121c0 2.366-1.932 4.284-4.316 4.284-2.383 0-4.315-1.918-4.315-4.284 0-2.366 1.932-4.284 4.315-4.284 2.384 0 4.316 1.918 4.316 4.284Zm-5.993-.076c0-.153.124-.278.277-.278h1.148v-1.031a.28.28 0 1 1 .559 0v1.031h1.095a.279.279 0 0 1 0 .556h-1.095v1.185a.28.28 0 0 1-.559 0v-1.185h-1.148a.278.278 0 0 1-.277-.278Z" fill="#40196D"/><path d="M436.954 100.767v.5h.5v-.5h-.5Zm.559 0h-.5v.5h.5v-.5Zm0 .556v-.5h-.5v.5h.5Zm-.559 0h.5v-.5h-.5v.5Zm.252 4.582c2.656 0 4.816-2.138 4.816-4.784h-1c0 2.086-1.705 3.784-3.816 3.784v1Zm-4.815-4.784c0 2.646 2.159 4.784 4.815 4.784v-1c-2.111 0-3.815-1.698-3.815-3.784h-1Zm4.815-4.784c-2.656 0-4.815 2.139-4.815 4.784h1c0-2.086 1.704-3.784 3.815-3.784v-1Zm4.816 4.784c0-2.645-2.16-4.784-4.816-4.784v1c2.111 0 3.816 1.698 3.816 3.784h1Zm-6.216-.854a.777.777 0 0 0-.777.778h1c0 .123-.1.222-.223.222v-1Zm1.148 0h-1.148v1h1.148v-1Zm.5.5v-1.031h-1v1.031h1Zm0-1.031a.22.22 0 0 1-.221.22v-1a.78.78 0 0 0-.779.78h1Zm-.221.22a.22.22 0 0 1-.22-.22h1a.78.78 0 0 0-.78-.78v1Zm-.22-.22v1.031h1v-1.031h-1Zm1.595.531h-1.095v1h1.095v-1Zm.778.778a.778.778 0 0 0-.778-.778v1a.221.221 0 0 1-.222-.222h1Zm-.778.778a.779.779 0 0 0 .778-.778h-1c0-.123.099-.222.222-.222v1Zm-1.095 0h1.095v-1h-1.095v1Zm-.5-.5v1.185h1v-1.185h-1Zm0 1.185a.22.22 0 0 1 .22-.22v1a.78.78 0 0 0 .78-.78h-1Zm.22-.22a.22.22 0 0 1 .221.22h-1c0 .431.349.78.779.78v-1Zm.221.22v-1.185h-1v1.185h1Zm-1.648-.685h1.148v-1h-1.148v1Zm-.777-.778c0 .429.348.778.777.778v-1c.123 0 .223.099.223.222h-1Z" fill="#40196D" mask="url(#l)"/><path d="M217.218 89.021c0 7.776-6.171 14.08-13.784 14.08-7.612 0-13.784-6.304-13.784-14.08s6.172-14.08 13.784-14.08c7.613 0 13.784 6.304 13.784 14.08Z" fill="#DFE3FF"/><path fill-rule="evenodd" clip-rule="evenodd" d="M203.401 81.742c-3.973 0-7.227 3.33-7.227 7.377 0 4.048 3.262 7.378 7.227 7.378 3.965 0 7.227-3.33 7.227-7.378 0-4.047-3.262-7.377-7.227-7.377Zm-.33 3.514a11.778 11.778 0 0 1-1.986-.21c.253-.69.565-1.268.914-1.695.334-.41.698-.676 1.072-.776v2.681Zm.66 0v-2.68c.37.1.733.365 1.067.775.349.427.663 1.005.918 1.694-.598.118-1.263.193-1.985.211Zm-3.31-.367a6.066 6.066 0 0 1-1.418-.597 6.436 6.436 0 0 1 2.678-1.533c-.494.509-.929 1.23-1.26 2.13Zm5.96 0c-.331-.901-.766-1.621-1.26-2.13a6.427 6.427 0 0 1 2.677 1.532 6.28 6.28 0 0 1-1.417.597Zm-6.167.618a6.547 6.547 0 0 1-1.673-.734 6.634 6.634 0 0 0-1.591 3.994h2.79c.028-1.217.196-2.32.474-3.26Zm6.848 3.26a12.864 12.864 0 0 0-.475-3.26 6.552 6.552 0 0 0 1.674-.734 6.678 6.678 0 0 1 1.591 3.994h-2.79Zm-6.639 0a12.59 12.59 0 0 1 .454-3.092c.675.151 1.412.236 2.194.255v2.837h-2.648Zm3.308 0V85.93a11.22 11.22 0 0 0 2.187-.255c.266.913.433 1.968.462 3.092h-2.649Zm-5.189 4.699a6.65 6.65 0 0 1-1.592-4.025h2.789c.022 1.233.197 2.343.475 3.298-.645.188-1.211.434-1.672.727Zm2.335-.901a12.11 12.11 0 0 1-.455-3.124h2.649v2.875c-.782.02-1.52.104-2.194.248Zm2.854-.249v-2.875h2.649a12.452 12.452 0 0 1-.462 3.123 11.769 11.769 0 0 0-2.187-.248Zm2.857.423c.278-.955.446-2.065.474-3.298h2.791a6.614 6.614 0 0 1-1.599 4.025c-.456-.294-1.021-.54-1.666-.727Zm-4.589 2.157c-.349-.428-.662-1.006-.914-1.696a11.182 11.182 0 0 1 1.986-.21v2.68c-.374-.1-.738-.365-1.072-.774Zm1.732.775V92.99c.723.018 1.388.086 1.986.21-.256.69-.57 1.268-.919 1.696-.334.409-.697.674-1.067.775Zm-2.065-.2a6.459 6.459 0 0 1-2.663-1.517c.404-.242.873-.44 1.418-.596.324.892.757 1.61 1.245 2.114Zm3.464.007c.492-.51.92-1.228 1.25-2.12.54.156 1.015.354 1.419.596a6.433 6.433 0 0 1-2.669 1.524Z" fill="#40196D"/><rect opacity=".5" x="226.463" y="73.513" width="39.142" height="5.749" rx="2.875" fill="#DBDCE0"/><rect x="226.463" y="84.936" width="139.792" height="17.611" rx="8.806" fill="#DBDCE0"/><ellipse opacity=".5" cx="174.272" cy="88.744" rx="6.058" ry="6.188" fill="#CACACA"/><path d="M172.008 88.744a.862.862 0 0 0-.868-.866.865.865 0 0 0-.865.866c0 .48.388.867.865.867a.865.865 0 0 0 .868-.867Zm3.123 0a.857.857 0 1 0-1.715 0c0 .48.383.867.86.867a.86.86 0 0 0 .855-.867Zm3.14 0a.86.86 0 0 0-.859-.866.863.863 0 0 0-.869.866.863.863 0 1 0 1.728 0Z" fill="#000"/><defs><filter id="a" x="0" y=".273" width="710" height="472.453" filterUnits="userSpaceOnUse" color-interpolation-filters="sRGB"><feFlood flood-opacity="0" result="BackgroundImageFix"/><feColorMatrix in="SourceAlpha" values="0 0 0 0 0 0 0 0 0 0 0 0 0 0 0 0 0 0 127 0" result="hardAlpha"/><feOffset dx="24" dy="24"/><feGaussianBlur stdDeviation="7.5"/><feComposite in2="hardAlpha" operator="out"/><feColorMatrix values="0 0 0 0 0.25098 0 0 0 0 0.0980392 0 0 0 0 0.427451 0 0 0 0.1 0"/><feBlend in2="BackgroundImageFix" result="effect1_dropShadow_633_775"/><feBlend in="SourceGraphic" in2="effect1_dropShadow_633_775" result="shape"/><feColorMatrix in="SourceAlpha" values="0 0 0 0 0 0 0 0 0 0 0 0 0 0 0 0 0 0 127 0" result="hardAlpha"/><feOffset/><feGaussianBlur stdDeviation="5"/><feComposite in2="hardAlpha" operator="arithmetic" k2="-1" k3="1"/><feColorMatrix values="0 0 0 0 0.25098 0 0 0 0 0.0980392 0 0 0 0 0.427451 0 0 0 0.1 0"/><feBlend in2="shape" result="effect2_innerShadow_633_775"/></filter><filter id="b" x="160.217" y="117.063" width="71.916" height="29.327" filterUnits="userSpaceOnUse" color-interpolation-filters="sRGB"><feFlood flood-opacity="0" result="BackgroundImageFix"/><feColorMatrix in="SourceAlpha" values="0 0 0 0 0 0 0 0 0 0 0 0 0 0 0 0 0 0 127 0" result="hardAlpha"/><feOffset dy="3"/><feGaussianBlur stdDeviation="4"/><feColorMatrix values="0 0 0 0 0 0 0 0 0 0 0 0 0 0 0 0 0 0 0.12 0"/><feBlend in2="BackgroundImageFix" result="effect1_dropShadow_633_775"/><feBlend in="SourceGraphic" in2="effect1_dropShadow_633_775" result="shape"/></filter><filter id="c" x="159.984" y="116.825" width="72.383" height="29.803" filterUnits="userSpaceOnUse" color-interpolation-filters="sRGB"><feFlood flood-opacity="0" result="BackgroundImageFix"/><feColorMatrix in="SourceAlpha" values="0 0 0 0 0 0 0 0 0 0 0 0 0 0 0 0 0 0 127 0" result="hardAlpha"/><feOffset dy="3"/><feGaussianBlur stdDeviation="4"/><feColorMatrix values="0 0 0 0 0 0 0 0 0 0 0 0 0 0 0 0 0 0 0.12 0"/><feBlend in2="BackgroundImageFix" result="effect1_dropShadow_633_775"/><feBlend in="SourceGraphic" in2="effect1_dropShadow_633_775" result="shape"/></filter><filter id="e" x="220.326" y="117.063" width="71.916" height="29.327" filterUnits="userSpaceOnUse" color-interpolation-filters="sRGB"><feFlood flood-opacity="0" result="BackgroundImageFix"/><feColorMatrix in="SourceAlpha" values="0 0 0 0 0 0 0 0 0 0 0 0 0 0 0 0 0 0 127 0" result="hardAlpha"/><feOffset dy="3"/><feGaussianBlur stdDeviation="4"/><feColorMatrix values="0 0 0 0 0 0 0 0 0 0 0 0 0 0 0 0 0 0 0.12 0"/><feBlend in2="BackgroundImageFix" result="effect1_dropShadow_633_775"/><feBlend in="SourceGraphic" in2="effect1_dropShadow_633_775" result="shape"/></filter><filter id="f" x="220.094" y="116.825" width="72.383" height="29.803" filterUnits="userSpaceOnUse" color-interpolation-filters="sRGB"><feFlood flood-opacity="0" result="BackgroundImageFix"/><feColorMatrix in="SourceAlpha" values="0 0 0 0 0 0 0 0 0 0 0 0 0 0 0 0 0 0 127 0" result="hardAlpha"/><feOffset dy="3"/><feGaussianBlur stdDeviation="4"/><feColorMatrix values="0 0 0 0 0 0 0 0 0 0 0 0 0 0 0 0 0 0 0.12 0"/><feBlend in2="BackgroundImageFix" result="effect1_dropShadow_633_775"/><feBlend in="SourceGraphic" in2="effect1_dropShadow_633_775" result="shape"/></filter><filter id="g" x="279.039" y="117.063" width="71.916" height="29.327" filterUnits="userSpaceOnUse" color-interpolation-filters="sRGB"><feFlood flood-opacity="0" result="BackgroundImageFix"/><feColorMatrix in="SourceAlpha" values="0 0 0 0 0 0 0 0 0 0 0 0 0 0 0 0 0 0 127 0" result="hardAlpha"/><feOffset dy="3"/><feGaussianBlur stdDeviation="4"/><feColorMatrix values="0 0 0 0 0 0 0 0 0 0 0 0 0 0 0 0 0 0 0.12 0"/><feBlend in2="BackgroundImageFix" result="effect1_dropShadow_633_775"/><feBlend in="SourceGraphic" in2="effect1_dropShadow_633_775" result="shape"/></filter><filter id="h" x="278.807" y="116.825" width="72.383" height="29.803" filterUnits="userSpaceOnUse" color-interpolation-filters="sRGB"><feFlood flood-opacity="0" result="BackgroundImageFix"/><feColorMatrix in="SourceAlpha" values="0 0 0 0 0 0 0 0 0 0 0 0 0 0 0 0 0 0 127 0" result="hardAlpha"/><feOffset dy="3"/><feGaussianBlur stdDeviation="4"/><feColorMatrix values="0 0 0 0 0 0 0 0 0 0 0 0 0 0 0 0 0 0 0.12 0"/><feBlend in2="BackgroundImageFix" result="effect1_dropShadow_633_775"/><feBlend in="SourceGraphic" in2="effect1_dropShadow_633_775" result="shape"/></filter><filter id="i" x="401.83" y="42.325" width="125.488" height="69.039" filterUnits="userSpaceOnUse" color-interpolation-filters="sRGB"><feFlood flood-opacity="0" result="BackgroundImageFix"/><feColorMatrix in="SourceAlpha" values="0 0 0 0 0 0 0 0 0 0 0 0 0 0 0 0 0 0 127 0" result="hardAlpha"/><feOffset/><feGaussianBlur stdDeviation="12.5"/><feColorMatrix values="0 0 0 0 0 0 0 0 0 0 0 0 0 0 0 0 0 0 0.06 0"/><feBlend in2="BackgroundImageFix" result="effect1_dropShadow_633_775"/><feBlend in="SourceGraphic" in2="effect1_dropShadow_633_775" result="shape"/></filter><filter id="k" x="401.83" y="66.601" width="125.488" height="69.039" filterUnits="userSpaceOnUse" color-interpolation-filters="sRGB"><feFlood flood-opacity="0" result="BackgroundImageFix"/><feColorMatrix in="SourceAlpha" values="0 0 0 0 0 0 0 0 0 0 0 0 0 0 0 0 0 0 127 0" result="hardAlpha"/><feOffset/><feGaussianBlur stdDeviation="12.5"/><feColorMatrix values="0 0 0 0 0 0 0 0 0 0 0 0 0 0 0 0 0 0 0.06 0"/><feBlend in2="BackgroundImageFix" result="effect1_dropShadow_633_775"/><feBlend in="SourceGraphic" in2="effect1_dropShadow_633_775" result="shape"/></filter></defs></svg>